<?xml version="1.0" encoding="utf-8"?>
<!-- Generator: Adobe Illustrator 26.3.1, SVG Export Plug-In . SVG Version: 6.00 Build 0)  -->
<svg version="1.1" id="Layer_1" xmlns="http://www.w3.org/2000/svg" xmlns:xlink="http://www.w3.org/1999/xlink" x="0px" y="0px"
	 viewBox="0 0 44 13" style="enable-background:new 0 0 44 13;" xml:space="preserve">
<style type="text/css">
	.st0{fill:#CCFF66;}
</style>
<path class="st0" d="M43,1.2c-0.6,0-1,0.5-1,1.1l-0.1,7.3c-0.5-0.5-1.1-1-1.9-1.6c-2.3-1.8-5.5-4-9.5-5.7C22.5-1,11.7-1.9,0.4,7.5
	c-0.4,0.4-0.5,1-0.2,1.5c0.3,0.5,1,0.5,1.4,0.2c10.6-8.8,20.7-8,28.2-4.9c3.8,1.5,6.8,3.6,9,5.4c0.5,0.4,1,0.8,1.4,1.2l-6.4-0.1
	c-0.6,0-1,0.5-1,1.1c0,0.6,0.4,1.1,1,1.1l9.1,0.2c0.6,0,1-0.5,1-1.1L44,2.3C44,1.7,43.6,1.2,43,1.2z"/>
</svg>
