<?xml version="1.0" encoding="utf-8"?>
<!-- Generator: Adobe Illustrator 24.0.1, SVG Export Plug-In . SVG Version: 6.00 Build 0)  -->
<svg version="1.1" id="Layer_1" xmlns="http://www.w3.org/2000/svg" xmlns:xlink="http://www.w3.org/1999/xlink" x="0px" y="0px"
	 viewBox="0 0 21 21" style="enable-background:new 0 0 21 21;" xml:space="preserve">
<style type="text/css">
	.st0{fill:#CCFF66;}
</style>
<path class="st0" d="M5,5L5,5c0.6-0.6,1.5-0.6,2,0l8,8c0.6,0.6,0.6,1.5,0,2l0,0c-0.6,0.6-1.5,0.6-2,0L5,7C4.5,6.5,4.5,5.6,5,5z"/>
<path class="st0" d="M15.1,5L15.1,5c0.6,0.6,0.6,1.5,0,2l-8,8c-0.6,0.6-1.5,0.6-2,0l0,0c-0.6-0.6-0.6-1.5,0-2l8-8
	C13.6,4.5,14.5,4.5,15.1,5z"/>
</svg>
