<?xml version="1.0" encoding="utf-8"?>
<!-- Generator: Adobe Illustrator 24.0.1, SVG Export Plug-In . SVG Version: 6.00 Build 0)  -->
<svg version="1.1" id="Layer_1" xmlns="http://www.w3.org/2000/svg" xmlns:xlink="http://www.w3.org/1999/xlink" x="0px" y="0px"
	 viewBox="0 0 320.3 326" style="enable-background:new 0 0 320.3 326;" xml:space="preserve">
<style type="text/css">
	.st0{fill-rule:evenodd;clip-rule:evenodd;fill:#525051;}
	.st1{fill-rule:evenodd;clip-rule:evenodd;fill:#CCFF66;}
	.st2{fill-rule:evenodd;clip-rule:evenodd;fill:#CCCCCC;}
	.st3{fill:#525051;}
	.st4{fill-rule:evenodd;clip-rule:evenodd;fill:#FEFEFE;}
	.st5{fill-rule:evenodd;clip-rule:evenodd;fill:#EEEEEC;}
</style>
<path class="st0" d="M311.6,326c-1.5-2.9-4.5-4.9-8-4.9H18.2c-3.5,0-6.5,2-8,4.9H311.6z"/>
<path class="st1" d="M50.1,200.4c0,61.1,49.6,110.7,110.8,110.7c61.2,0,110.8-49.6,110.8-110.7c0-61.1-49.6-110.7-110.8-110.7
	C99.7,89.7,50.1,139.3,50.1,200.4z"/>
<path class="st0" d="M6,277.5c0.7,2.7,1.6,5.3,2.6,7.8l1.3-0.5c-1-2.5-1.9-5-2.6-7.6L6,277.5z M12.2,292.6c1.4,2.4,2.9,4.6,4.6,6.8
	l1.1-0.9c-1.6-2.1-3.1-4.3-4.5-6.7L12.2,292.6L12.2,292.6z M22.2,305.6c1.9,1.9,4,3.7,6.2,5.4l0.9-1.1c-2.1-1.6-4.1-3.4-6-5.3
	L22.2,305.6z M35.2,315.5c2.4,1.4,4.8,2.6,7.3,3.6l0.6-1.3c-2.5-1-4.9-2.2-7.2-3.5L35.2,315.5z M50.3,321.8c2.6,0.7,5.3,1.2,8,1.6
	l0.2-1.4c-2.7-0.4-5.3-0.9-7.9-1.6L50.3,321.8z M66.5,323.9L66.5,323.9c2.8,0,5.5-0.2,8.2-0.5l-0.2-1.4c-2.6,0.3-5.3,0.5-8,0.5h0
	L66.5,323.9L66.5,323.9z M82.7,321.8c2.7-0.7,5.3-1.6,7.8-2.6l-0.5-1.3c-2.5,1-5,1.9-7.6,2.6L82.7,321.8z M97.8,315.5
	c2.4-1.4,4.7-2.9,6.8-4.6l-0.9-1.1c-2.1,1.6-4.3,3.1-6.7,4.5L97.8,315.5L97.8,315.5z M110.8,305.6c1.9-1.9,3.7-4,5.4-6.2l-1.1-0.9
	c-1.6,2.1-3.4,4.1-5.3,6L110.8,305.6L110.8,305.6z M120.8,292.6c1.4-2.4,2.6-4.8,3.6-7.3l-1.3-0.6c-1,2.5-2.2,4.9-3.6,7.2
	L120.8,292.6L120.8,292.6z M127.1,277.5c0.7-2.6,1.2-5.3,1.6-8l-1.4-0.2c-0.4,2.7-0.9,5.3-1.6,7.8L127.1,277.5z M129.2,261.3
	L129.2,261.3c0-2.8-0.2-5.5-0.5-8.2l-1.4,0.2c0.3,2.6,0.5,5.2,0.5,7.9l0,0.1L129.2,261.3z M127.1,245.1c-0.7-2.7-1.6-5.3-2.6-7.8
	l-1.3,0.5c1,2.5,1.9,5,2.6,7.6L127.1,245.1L127.1,245.1z M120.9,230c-1.4-2.4-2.9-4.7-4.6-6.8l-1.1,0.9c1.6,2.1,3.1,4.3,4.4,6.7
	L120.9,230L120.9,230z M110.9,217c-1.9-1.9-4-3.7-6.2-5.4l-0.9,1.1c2.1,1.6,4.1,3.4,6,5.3L110.9,217L110.9,217z M98,207.1
	c-2.4-1.4-4.8-2.6-7.3-3.6l-0.6,1.3c2.5,1,4.9,2.2,7.2,3.6L98,207.1L98,207.1z M82.9,200.8c-2.6-0.7-5.3-1.2-8-1.6l-0.2,1.4
	c2.7,0.4,5.3,0.9,7.9,1.6L82.9,200.8z M66.6,198.6h-0.1c-2.7,0-5.4,0.2-8.1,0.5l0.2,1.4c2.6-0.3,5.2-0.5,7.9-0.5h0.1L66.6,198.6z
	 M50.4,200.7c-2.7,0.7-5.3,1.6-7.8,2.6l0.5,1.3c2.5-1,5-1.9,7.6-2.6L50.4,200.7z M35.3,207c-2.4,1.4-4.7,2.9-6.8,4.5l0.9,1.1
	c2.1-1.6,4.3-3.1,6.7-4.4L35.3,207L35.3,207z M22.3,216.9c-1.9,1.9-3.7,4-5.4,6.1l1.1,0.9c1.6-2.1,3.4-4.1,5.3-6L22.3,216.9
	L22.3,216.9z M12.3,229.8c-1.4,2.4-2.6,4.8-3.6,7.3l1.3,0.6c1-2.5,2.2-4.9,3.6-7.2L12.3,229.8z M6,244.9c-0.7,2.6-1.2,5.3-1.6,8
	l1.4,0.2c0.4-2.7,0.9-5.3,1.6-7.8L6,244.9z M3.9,261.1v0.1c0,2.8,0.2,5.5,0.5,8.2l1.4-0.2c-0.3-2.6-0.5-5.3-0.5-8l0-0.1L3.9,261.1
	L3.9,261.1z"/>
<path class="st2" d="M73.7,324.7c0.6,0.5,1.3,0.9,1.9,1.3h19.8c5.9-2.4,10.1-5.8,10.1-5.8l50.7,1.8v0.1l0.9,0l0.9,0V322l50.7-1.8
	c0,0,4.2,3.4,10.1,5.8h19.8c0.6-0.4,1.3-0.8,1.9-1.3c12.4-9.6-2.5-70-16.1-88.5c-4.8-6.5-13.1-9.7-20.7-11.1
	c-8.3-1.6-16.8-0.9-24.9,1.5c-5.4,1.7-13.3,3.5-21.7,3.7c-8.4-0.1-16.3-2-21.7-3.7c-8.1-2.5-16.6-3.1-24.9-1.5
	c-7.6,1.5-15.9,4.6-20.7,11.1C76.2,254.7,61.2,315.2,73.7,324.7z"/>
<g>
	<polygon class="st3" points="157.1,322 157.1,322 157.1,322.1 157.1,322.1 157.1,322.1 157.1,322 	"/>
	<path class="st3" d="M223.6,236.7c3.7,5,6.3,10.9,8.6,16.6c2.9,7.4,5.3,15,7.3,22.7c1.9,7.6,3.5,15.4,4.3,23.2
		c0.6,6,1,12.4-0.4,18.4c-0.4,1.9-1.2,4-2.4,5.5c-1.1,1.3-2.6,2.3-4.2,3h3.6c0.5-0.4,1-0.8,1.4-1.2c1.9-1.9,2.9-4.7,3.4-7.3
		c0.8-3.7,0.9-7.5,0.8-11.2c-0.1-4.7-0.7-9.3-1.4-14c-1.6-10.3-4.1-20.4-7.4-30.3c-2.8-8.3-5.9-16.8-10.7-24.2
		c-0.4-0.7-0.9-1.3-1.4-2C225.9,236.7,224.3,237.6,223.6,236.7z"/>
	<path class="st3" d="M72.9,325.3c0.3,0.3,0.7,0.5,1,0.7h3.5c-1.2-0.5-2.4-1.3-3.4-2.2c-2.1-1.8-2.9-4.9-3.4-7.7
		c-0.7-4.2-0.7-8.5-0.4-12.7c0.7-11,3-21.9,5.9-32.4c2.8-10,6.2-20,11.2-29.1c0.9-1.7,1.9-3.4,3.1-4.9c2-2.8,4.6-5,7.6-6.6
		c6.7-3.8,14.7-5.4,22.3-5.3c4.4,0,8.8,0.7,13,1.8c3.6,1,7.1,2.1,10.8,2.8c4.2,0.8,8.5,1.4,12.8,1.5c4.3,0.1,8.6-0.5,12.9-1.3
		c3.6-0.7,7.2-1.7,10.7-2.7c4.2-1.2,8.6-1.9,13-2c7.6-0.2,15.7,1.3,22.4,4.9c3,1.6,5.8,3.8,7.9,6.6c0,0,0,0,0,0c0,0,0,0,0,0
		c-0.7-0.9,0.9-1.8,1.6-0.9c0,0,0,0,0,0c0,0,0,0,0,0l0,0c-3.2-4.3-7.7-7.2-12.7-9.1c-5.4-2.1-11.3-3.2-17.1-3.3
		c-3.3-0.1-6.6,0.2-9.9,0.8c-3,0.5-5.9,1.4-8.8,2.2c-6,1.7-12.1,2.8-18.4,3c-6.3,0.2-12.8-0.9-18.9-2.5c-2.8-0.7-5.6-1.7-8.4-2.3
		c-3.2-0.7-6.5-1.1-9.7-1.2c-6-0.2-12,0.7-17.7,2.6c-5,1.7-9.9,4.2-13.4,8.3c-2.1,2.4-3.8,5.3-5.3,8.2c-1.7,3.2-3.2,6.6-4.5,10
		c-3.2,7.9-5.7,16-7.7,24.3c-2,8.1-3.6,16.3-4.3,24.6c-0.5,6.1-0.8,12.8,1.2,18.7C70.2,321.9,71.2,323.9,72.9,325.3z"/>
	<path class="st3" d="M157.1,322c0-0.4,0.3-0.7,0.6-0.8c-0.4,0-0.8,0-1.2,0C156.8,321.3,157.1,321.6,157.1,322z"/>
	<path class="st3" d="M104.8,319.6C104.8,319.6,104.8,319.6,104.8,319.6C104.9,319.5,104.6,319.7,104.8,319.6z"/>
	<path class="st3" d="M104.3,320c-0.5,0.4-1.1,0.8-1.6,1.1c-3.1,2-6.4,3.8-9.9,4.9h4.9c2.5-1.2,4.9-2.6,7.1-4.2
		c0.3-0.2,0.6-0.4,0.9-0.6c-0.1,0-0.2,0-0.3,0c0.2-0.1,0.4-0.2,0.6-0.3c-0.1,0.1-0.2,0.2-0.4,0.3c5.6,0.2,11.3,0.4,16.9,0.6
		c9.1,0.3,18.2,0.6,27.3,1c2,0.1,3.9,0.1,5.9,0.2c-0.3-0.1-0.5-0.5-0.5-0.8V322c0.3,0.3,0.6,0.6,0.9,0.9c-0.1,0-0.2,0-0.4,0
		c0.1,0.1,0.2,0.1,0.4,0.1c0.6,0,1.2,0,1.8,0c0.1,0,0.2,0,0.4-0.1c-0.1,0-0.2,0-0.4,0c0.3-0.3,0.6-0.6,0.9-0.9v0.1
		c0,0.3-0.2,0.7-0.5,0.8c5.6-0.2,11.2-0.4,16.8-0.6c9.1-0.3,18.2-0.6,27.3-1c2-0.1,4-0.1,6-0.2c-0.1-0.1-0.2-0.2-0.4-0.3
		c0.2,0.1,0.4,0.2,0.6,0.3c-0.1,0-0.2,0-0.3,0c1.8,1.4,3.8,2.6,5.8,3.7c0.8,0.4,1.6,0.8,2.3,1.2h4.7c-3.4-1.2-6.7-2.9-9.6-4.8
		c-0.7-0.5-1.4-0.9-2.1-1.4c-0.1-0.1-0.4-0.3-0.1-0.1l-0.1-0.1c-0.2-0.1-0.4-0.2-0.7-0.3c-1-0.1-2.1,0.1-3.1,0.1
		c-5.2,0.2-10.5,0.4-15.7,0.6c-6.4,0.2-12.8,0.5-19.3,0.7c-4,0.1-8,0.3-12,0.4c-0.2,0-0.4,0-0.6,0c-0.1,0-0.2,0-0.3,0.1
		c0.1,0,0.2,0,0.3,0c-0.3,0.3-0.6,0.6-0.9,0.9v0c0,0,0,0,0,0c0,0,0,0,0,0v0c-0.3-0.3-0.6-0.6-0.9-0.9c0.1,0,0.2,0,0.3,0
		c-0.1,0-0.2-0.1-0.3-0.1c-5.2-0.2-10.4-0.4-15.6-0.6c-8.8-0.3-17.6-0.6-26.5-0.9c-2.6-0.1-5.2-0.2-7.8-0.3c-0.6,0-1-0.1-1.6,0.2
		c0,0,0,0,0,0C104.6,319.7,104.5,319.8,104.3,320z"/>
</g>
<path class="st0" d="M160.1,132.9c0.7,2.7,1.6,5.3,2.6,7.8l1.3-0.6c-1-2.5-1.9-5-2.6-7.6L160.1,132.9z M166.4,148.1
	c1.4,2.4,2.9,4.6,4.6,6.8l1.1-0.9c-1.6-2.1-3.1-4.3-4.5-6.7L166.4,148.1L166.4,148.1z M176.3,161c1.9,1.9,4,3.7,6.2,5.4l0.9-1.1
	c-2.1-1.6-4.1-3.4-6-5.3L176.3,161L176.3,161z M189.3,171c2.4,1.4,4.8,2.6,7.3,3.6l0.6-1.3c-2.5-1-4.9-2.2-7.2-3.5L189.3,171z
	 M204.4,177.2c2.6,0.7,5.3,1.2,8,1.6l0.2-1.4c-2.7-0.4-5.3-0.9-7.9-1.6L204.4,177.2z M220.6,179.4L220.6,179.4
	c2.8,0,5.5-0.2,8.2-0.5l-0.2-1.4c-2.6,0.3-5.3,0.5-8,0.5h0L220.6,179.4z M236.9,177.3c2.7-0.7,5.3-1.6,7.8-2.6l-0.5-1.3
	c-2.5,1-5,1.9-7.6,2.6L236.9,177.3z M252,171c2.4-1.4,4.7-2.9,6.8-4.6l-0.9-1.1c-2.1,1.6-4.3,3.1-6.7,4.4L252,171L252,171z
	 M265,161.1c1.9-1.9,3.7-4,5.4-6.2l-1.1-0.9c-1.6,2.1-3.4,4.1-5.3,6L265,161.1z M274.9,148.1c1.4-2.4,2.6-4.8,3.6-7.3l-1.3-0.6
	c-1,2.5-2.2,4.9-3.6,7.2L274.9,148.1L274.9,148.1z M281.2,133c0.7-2.6,1.2-5.3,1.6-8l-1.4-0.2c-0.4,2.7-0.9,5.3-1.6,7.8L281.2,133
	L281.2,133z M283.4,116.8L283.4,116.8c0-2.8-0.2-5.5-0.5-8.2l-1.4,0.2c0.3,2.6,0.5,5.2,0.5,7.9v0.1L283.4,116.8L283.4,116.8z
	 M281.3,100.6c-0.7-2.7-1.6-5.3-2.6-7.8l-1.3,0.5c1,2.5,1.9,5,2.6,7.6L281.3,100.6L281.3,100.6z M275,85.5c-1.4-2.4-2.9-4.7-4.6-6.8
	l-1.1,0.9c1.6,2.1,3.1,4.3,4.4,6.7L275,85.5L275,85.5z M265.1,72.5c-1.9-1.9-4-3.7-6.2-5.4l-0.9,1.1c2.1,1.6,4.1,3.4,6,5.3
	L265.1,72.5z M252.1,62.5c-2.4-1.4-4.8-2.6-7.3-3.6l-0.6,1.3c2.5,1,4.9,2.2,7.2,3.6L252.1,62.5z M237,56.2c-2.6-0.7-5.3-1.2-8-1.6
	l-0.2,1.4c2.7,0.4,5.3,0.9,7.9,1.6L237,56.2z M220.8,54.1h-0.1c-2.7,0-5.4,0.2-8.1,0.5l0.2,1.4c2.6-0.3,5.2-0.5,7.9-0.5h0.1
	L220.8,54.1z M204.6,56.2c-2.7,0.7-5.3,1.6-7.8,2.6l0.5,1.3c2.5-1,5-1.9,7.6-2.6L204.6,56.2L204.6,56.2z M189.4,62.4
	c-2.4,1.4-4.7,2.9-6.8,4.5l0.9,1.1c2.1-1.6,4.3-3.1,6.7-4.4L189.4,62.4L189.4,62.4z M176.4,72.4c-1.9,1.9-3.7,4-5.4,6.1l1.1,0.9
	c1.6-2.1,3.4-4.1,5.3-6L176.4,72.4z M166.4,85.3c-1.4,2.4-2.6,4.8-3.6,7.3l1.3,0.6c1-2.5,2.2-4.9,3.6-7.2L166.4,85.3L166.4,85.3z
	 M160.2,100.4c-0.7,2.6-1.2,5.3-1.6,8l1.4,0.2c0.4-2.7,0.9-5.3,1.6-7.8L160.2,100.4L160.2,100.4z M158,116.6l0,0.1
	c0,2.8,0.2,5.5,0.5,8.2l1.4-0.2c-0.3-2.6-0.5-5.3-0.5-8l0-0.1L158,116.6L158,116.6z"/>
<path class="st4" d="M117.3,148.1c0,0-7.6,44.9,24.9,59.8l0.3,8.3c0,0,16.6,2.3,26.8,1.2l-1-11.2c0,0,20.9-5.5,19.6-38.7
	c-0.2-5.2-0.4-9.7-0.7-13.6c-1.2-18-13.8-33.5-31.4-37.6C141,112.8,124.3,117.1,117.3,148.1L117.3,148.1z"/>
<path class="st0" d="M107.2,183.1c-2.9,3.8-5.6,8-7.3,12.4c-1,2.5-1.8,5.5-0.6,8c1.6,3.3,6.4,3.9,9.6,3.7c3-0.2,6-0.9,8.8-2.2
	c1.1-0.5,0.1-2-0.9-1.5c-0.1,0-0.2,0.1,0.1,0c-0.1,0.1-0.2,0.1-0.4,0.2c-0.5,0.2-1,0.4-1.5,0.5c-1.5,0.5-3,0.9-4.6,1.1
	c-1.8,0.3-3.7,0.3-5.5-0.1c-1.4-0.3-3.1-1-3.9-2.2c-1.2-1.9-0.3-4.7,0.4-6.7c1-2.7,2.5-5.3,4.1-7.8c0.7-1.1,1.4-2.1,2.1-3.1
	c0.2-0.3,0.4-0.6,0.7-0.9c0.1-0.1,0.4-0.5,0.1-0.2C109.2,183.5,108,182.2,107.2,183.1L107.2,183.1z"/>
<path class="st4" d="M132.5,215.9c0,0,5.2-2.3,9.6-3.3c0,0,0.5,4.8,0.4,4.8C142.4,217.4,132.5,215.9,132.5,215.9z"/>
<path class="st0" d="M132.9,216.7c0.1,0,0.2-0.1,0.2-0.1c0.1,0,0.2-0.1,0.3-0.1l0.2-0.1c0.1,0-0.1,0,0,0c0.8-0.3,1.5-0.6,2.3-0.9
	c2.1-0.8,4.2-1.5,6.4-2c-0.4-0.3-0.8-0.6-1.1-0.9c0.1,0.8,0.1,1.5,0.2,2.3c0,0.5,0.1,1.1,0.1,1.6c0,0.2,0,0.4,0,0.6l0,0.2
	c0,0.2,0-0.1,0-0.1c0.1-0.2,0.3-0.4,0.4-0.5l0,0c0.2,0,0.3-0.1,0.5-0.1c0.5,0.1,0,0-0.1,0c-0.2,0-0.5-0.1-0.7-0.1
	c-0.8-0.1-1.6-0.2-2.4-0.4c-1.8-0.3-3.5-0.5-5.3-0.8c-0.4-0.1-0.8-0.1-1.2-0.2c-0.5-0.1-1,0.1-1.1,0.6c-0.1,0.4,0.1,1,0.6,1.1
	c2.1,0.3,4.3,0.6,6.4,1c1.1,0.2,2.2,0.3,3.3,0.5c0.6,0.1,1.2,0.2,1.4-0.6c0.1-0.4,0-0.9,0-1.3c-0.1-1.3-0.2-2.5-0.3-3.8
	c-0.1-0.6-0.5-1-1.1-0.9c-3.4,0.8-6.7,2-9.9,3.4c-0.4,0.2-0.5,0.8-0.3,1.2C132,216.8,132.5,216.9,132.9,216.7L132.9,216.7z"/>
<path class="st4" d="M179.6,216.2c0,0-6.6-2.7-11.1-3.7c0,0,0.5,5,0,4.9C168.4,217.4,179.6,216.2,179.6,216.2z"/>
<path class="st0" d="M179.8,215.3c-3.6-1.4-7.3-2.8-11.1-3.7c-0.5-0.1-1.2,0.3-1.1,0.9c0.1,0.7,0.1,1.4,0.2,2.2
	c0,0.5,0.1,1.1,0.1,1.6c0,0.2,0,0.4,0,0.7c0,0.2,0.1-0.2,0,0.1l0,0.1c0.1-0.3,0.3-0.5,0.7-0.5c0.2,0,0.3,0.1,0.5,0.1h0
	c-0.1,0.5-0.1,1.1-0.2,1.6c0.1,0-0.2,0-0.1,0c0.1,0,0.2,0,0.3,0c0.3,0,0.5-0.1,0.8-0.1c0.9-0.1,1.8-0.2,2.7-0.3
	c2-0.2,3.9-0.4,5.9-0.7c0.5-0.1,0.9-0.1,1.4-0.2c0.5-0.1,0.9-0.4,0.9-0.9c0-0.4-0.4-1-0.9-0.9c-3.2,0.4-6.5,0.7-9.7,1.1
	c-0.5,0.1-1.1,0.1-1.6,0.2c-0.8,0.2-0.9,1.2-0.2,1.6c0.7,0.4,1.4-0.2,1.5-0.9c0.1-0.6,0.1-1.3,0.1-1.9c0-1-0.1-2-0.2-3
	c-0.4,0.3-0.8,0.6-1.1,0.9c3.8,0.9,7.5,2.2,11.1,3.7c0.5,0.2,1-0.2,1.1-0.6C180.6,215.9,180.2,215.5,179.8,215.3L179.8,215.3z"/>
<path class="st0" d="M134.9,98.7c0,10.9,7.7,19.8,17.3,19.8c9.5,0,17.3-8.9,17.3-19.8s-7.7-19.8-17.3-19.8
	C142.6,78.9,134.9,87.8,134.9,98.7z"/>
<path class="st0" d="M108.1,154.5c0,0-4.1-37.9,26.6-49.8c10.4-4,21.9-4,32.4-0.2c14,5,32.7,17.9,31.6,50.6l-2.9-1.1
	c0,0-1.9-41.2-42.5-41.8c-40.5-0.6-42.7,40.4-42.7,40.4L108.1,154.5L108.1,154.5z"/>
<path class="st0" d="M121.1,154h-11.7l8.6-11.9L121.1,154z"/>
<path class="st0" d="M189.5,154.5l1.1-9.1l5.2,8.6L189.5,154.5z"/>
<path class="st4" d="M107.9,158.1c0,0,0.7-51.6,45.5-51.6c42.8,0,43.8,45.4,43.9,50.1c0,0-19.7-36-41.4-36
	C123.5,120.7,107.9,158.1,107.9,158.1L107.9,158.1z"/>
<path class="st0" d="M108.8,158.1c0-1.5,0.2-3.1,0.3-4.6c0.4-3.6,1.1-7.5,2.1-11.1c1.3-4.9,3.1-9.6,5.6-14
	c2.7-4.9,6.3-9.3,10.7-12.7c5.1-4,11.2-6.4,17.5-7.5c7.5-1.3,15.6-0.9,22.9,1.5c5.9,1.9,11.3,5.3,15.5,9.9c3.7,4,6.4,8.8,8.4,13.8
	c1.7,4.4,2.9,9,3.7,13.6c0.5,2.9,0.8,5.8,0.9,8.8c0,0.3,0,0.7,0,1c0.6-0.2,1.1-0.3,1.7-0.5c-2.8-5-6.1-9.8-9.6-14.4
	c-6.1-7.9-13.6-16-23-20c-9.7-4.1-21-1.7-30,3.2c-8.3,4.5-15.1,11.4-20.5,19c-3,4.2-5.7,8.7-7.8,13.4c-0.1,0.1-0.1,0.3-0.2,0.4
	c-0.4,1.1,1.3,1.5,1.7,0.5c-0.2,0.4,0,0.1,0,0c0.1-0.2,0.2-0.4,0.3-0.6c0.4-0.8,0.7-1.6,1.1-2.3c1.4-2.7,2.9-5.3,4.6-7.8
	c4.9-7.4,10.9-14.1,18.4-19c4.2-2.8,8.9-4.9,13.9-6c4.9-1.1,10.1-1.5,15-0.1c4.7,1.4,8.9,4.1,12.6,7.2c3.9,3.2,7.4,7,10.7,10.9
	c4.2,5.1,7.9,10.6,11.2,16.2c0.1,0.1,0.1,0.2,0.2,0.3c0.4,0.8,1.7,0.4,1.7-0.5c-0.1-2.5-0.2-4.9-0.6-7.4c-0.6-4.5-1.5-9-2.9-13.4
	c-1.7-5.2-4.1-10.3-7.5-14.7c-3.7-4.9-8.5-8.9-14.1-11.6c-7-3.3-14.9-4.3-22.5-4c-7.1,0.3-14.1,2.1-20.2,5.7
	c-5.1,3-9.4,7.2-12.8,12.1c-3.1,4.4-5.4,9.4-7,14.5c-1.4,4.1-2.3,8.4-3,12.7c-0.3,2.3-0.7,4.7-0.7,7c0,0.1,0,0.2,0,0.3
	C107,159.3,108.8,159.3,108.8,158.1L108.8,158.1z"/>
<path class="st0" d="M167.4,206.1c-0.3,2.2-0.2,4.6,0,6.8c0.4,4.5,1.6,9,4.1,12.8c0.6,1,2.2,0.1,1.6-0.9c-3.5-5.3-4.7-12.5-3.9-18.7
	C169.4,205,167.6,205,167.4,206.1z"/>
<path class="st0" d="M140.8,206.5c0.7,6.4,0.8,13,0,19.4c-0.1,1.1,1.7,1.1,1.8,0c0.8-6.4,0.7-13,0-19.4
	C142.4,205.3,140.7,205.3,140.8,206.5z"/>
<path class="st0" d="M163.4,169.9c0,2.2,1.4,4,3,4c1.7,0,3-1.8,3-4c0-2.2-1.4-4-3-4C164.8,165.9,163.4,167.7,163.4,169.9z"/>
<path class="st0" d="M137.2,169.9c0,2.2,1.4,4,3,4c1.7,0,3-1.8,3-4c0-2.2-1.4-4-3-4C138.6,165.9,137.2,167.7,137.2,169.9z"/>
<path class="st0" d="M116.8,201.8c-1.9,1.1-2.8,3.2-1.9,4.6c0.8,1.4,3.1,1.7,5,0.6c1.9-1.1,2.8-3.2,1.9-4.6
	C120.9,200.9,118.7,200.7,116.8,201.8z"/>
<path class="st0" d="M162.6,153c-0.8,2.3,2.4,2,6.6,3.4c4.2,1.5,7.9,4.2,8.7,1.9c0.8-2.3-2-5.3-6.2-6.8
	C167.4,150.2,163.4,150.8,162.6,153z"/>
<path class="st0" d="M145.5,153c0.8,2.3-2.4,2-6.6,3.4c-4.2,1.5-7.9,4.2-8.7,1.9c-0.8-2.3,2-5.3,6.2-6.8
	C140.7,150.2,144.7,150.8,145.5,153L145.5,153z"/>
<path class="st0" d="M151.9,180.3c-1.2-0.5-2.5-1.4-3.2-2.5c-0.8-1.3,0.6-2.6,1.3-3.7c1.1-1.5,2.1-3,2.8-4.7c1-2.5,1.4-5.2,1.3-7.9
	c0-1.2-1.8-1.2-1.8,0c0.1,4-0.9,7.6-3.3,10.8c-0.7,1-1.5,1.9-2,3c-0.8,1.6-0.3,3.1,0.8,4.3c0.8,0.9,2,1.7,3.1,2.2
	C152,182.4,152.9,180.8,151.9,180.3L151.9,180.3z"/>
<path class="st4" d="M186.3,184.1c2.1,1.6,4.7,2.5,7.4,2.5c7.6,0,13.8-7.3,13.8-16.3c0-9-6.2-16.3-13.8-16.3c-2.5,0-4.8,0.8-6.8,2.1
	L186.3,184.1L186.3,184.1z"/>
<path class="st0" d="M185.9,184.9c3.7,2.7,8.5,3.4,12.8,1.6c3.8-1.6,6.6-4.8,8.2-8.5c3.3-7.8,1.2-18.2-6.2-22.9
	c-4.4-2.8-9.9-2.6-14.2,0.2c-1,0.6-0.1,2.2,0.9,1.6c3.5-2.3,7.8-2.6,11.5-0.7c3.1,1.7,5.5,4.7,6.7,8c2.5,7,0.5,16.2-6.3,20.1
	c-4,2.3-8.8,1.8-12.5-0.9C185.9,182.7,185,184.2,185.9,184.9L185.9,184.9z"/>
<path class="st4" d="M120.6,184.1c-2.1,1.6-4.7,2.5-7.4,2.5c-7.6,0-13.8-7.3-13.8-16.3c0-9,6.2-16.3,13.8-16.3
	c2.5,0,4.8,0.8,6.8,2.1L120.6,184.1L120.6,184.1z"/>
<path class="st0" d="M120.1,183.4c-3.3,2.4-7.7,3.2-11.5,1.4c-3.2-1.5-5.6-4.3-7-7.6c-2.9-6.9-1.1-16.2,5.4-20.5
	c3.9-2.5,8.6-2.4,12.5,0.1c1,0.6,1.9-0.9,0.9-1.6c-3.9-2.5-8.6-2.9-12.8-0.9c-3.7,1.8-6.4,5.2-7.9,8.9c-3,7.9-0.6,18.2,7.1,22.5
	c4.5,2.5,10,2.1,14.2-1C121.9,184.2,121,182.7,120.1,183.4z"/>
<path class="st0" d="M116.5,158.5c-0.2,1.8-0.2,3.7-0.2,5.5c0.1,4.4,0.5,8.8,1.3,13.1c1,5.3,2.8,10.6,5.5,15.3
	c3,5.1,7.1,9.5,12.3,12.4c6.5,3.6,14.2,4.8,21.6,4.4c6.8-0.3,13.6-2.2,19.1-6.4c4.5-3.5,7.6-8.4,9.6-13.7c1.9-5.2,2.8-10.8,3-16.4
	c0.2-4.8,0-9.6-0.6-14.3c-0.3-2.7-0.7-5.3-1.3-7.9c0-0.1-0.1-0.2-0.1-0.4c-0.3-1.1-2-0.6-1.7,0.5c0.4,1.7,0.7,3.5,1,5.2
	c0.6,4.1,1,8.4,1.1,12.6c0.1,5.3-0.4,10.6-1.7,15.7c-1.3,5.2-3.6,10.3-7.2,14.3c-4.2,4.6-9.8,7.2-15.8,8.3
	c-7.3,1.3-15.3,0.9-22.2-1.8c-5.5-2.1-10.2-5.9-13.6-10.6c-3.1-4.4-5.1-9.4-6.5-14.6c-1.1-4.4-1.7-8.9-1.9-13.5
	c-0.1-2.5-0.1-5,0.1-7.5c0-0.1,0-0.2,0-0.4C118.5,157.3,116.7,157.3,116.5,158.5L116.5,158.5z"/>
<path class="st0" d="M182.4,125.7c-1.1-1.2-2.2-2.3-3.3-3.4c-14-12.9-35.6-13.7-50.1-1.4c-8.5,7.2-16.1,19.3-16.8,39.6
	c0,0,28.5,2.9,47.4-36.5c0,0,0-0.1,0.1-0.2c8.6,5,20.6,14.9,27.4,33.2l5.1-3C192.1,154.1,193.4,137.9,182.4,125.7L182.4,125.7z"/>
<path class="st4" d="M207.1,323.5h-97.9c-3.9,0-7.1-3.2-7.1-7.1V257c0-3.9,3.2-7.1,7.1-7.1h97.9c3.9,0,7.1,3.2,7.1,7.1l0,59.4
	C214.3,320.3,211.1,323.5,207.1,323.5z"/>
<path class="st0" d="M207.1,322.6c-2.4,0-4.8,0-7.3,0c-6.1,0-12.1,0-18.2,0c-7.9,0-15.7,0-23.6,0c-7.9,0-15.7,0-23.6,0
	c-6,0-12,0-18,0c-2.4,0-4.9,0.1-7.3,0c-2.8-0.1-5.2-2-5.9-4.6c-0.2-0.7-0.2-1.4-0.2-2.1c0-1.7,0-3.5,0-5.3c0-7,0-14,0-21
	c0-7.6,0-15.2,0-22.9c0-2.5,0-4.9,0-7.4c0-1.4-0.1-2.9,0.3-4.3c0.9-2.9,3.6-4.3,6.4-4.3c1.3,0,2.5,0,3.8,0c5.3,0,10.7,0,16,0
	c7.6,0,15.1,0,22.7,0c8.1,0,16.1,0,24.2,0c6.6,0,13.2,0,19.9,0c3.5,0,6.9,0,10.4,0c3.1,0,5.8,1.8,6.5,4.9c0.3,1.3,0.1,2.7,0.1,4
	c0,6.1,0,12.2,0,18.3c0,7.9,0,15.8,0,23.7c0,4.8,0,9.5,0,14.3c0,0.8-0.1,1.6-0.3,2.4C212.2,320.9,209.8,322.6,207.1,322.6
	c-1.2,0-1.2,1.8,0,1.8c4.5-0.1,8-3.7,8-8.2c0-1.5,0-3,0-4.5c0-6.9,0-13.9,0-20.8c0-7.8,0-15.6,0-23.4c0-2.6,0-5.2,0-7.9
	c0-1.3,0.1-2.6-0.1-3.9c-0.6-4-4.1-6.8-8.1-6.8c-1.1,0-2.1,0-3.2,0c-5.1,0-10.3,0-15.4,0c-7.6,0-15.2,0-22.8,0c-8.2,0-16.4,0-24.6,0
	c-6.8,0-13.7,0-20.5,0c-3.6,0-7.1,0-10.7,0c-3.1,0-5.9,1.3-7.5,4.1c-1,1.8-1,3.7-1,5.7c0,5.9,0,11.8,0,17.8c0,8.1,0,16.1,0,24.2
	c0,5,0,10,0,15.1c0,3.5,1.8,6.7,5.2,8.1c1.4,0.5,2.8,0.5,4.2,0.5c4.3,0,8.5,0,12.8,0c7.2,0,14.4,0,21.6,0c8.2,0,16.4,0,24.6,0
	c7.3,0,14.6,0,22,0c4.5,0,9.1,0,13.6,0c0.6,0,1.2,0,1.9,0C208.3,324.4,208.3,322.6,207.1,322.6L207.1,322.6z"/>
<path class="st2" d="M130.1,225.3l2.3-9.1c0,0,22,4.2,47.1,0l3,9.5c0,0-7,7.8-26.2,7.8S130.1,225.3,130.1,225.3z"/>
<path class="st0" d="M130.9,225.5c0.8-3,1.6-6.1,2.3-9.1c-0.4,0.2-0.7,0.4-1.1,0.6c3,0.6,6.1,0.9,9.1,1.2c7.5,0.7,15.1,0.9,22.6,0.5
	c5.3-0.3,10.6-0.8,15.9-1.7c-0.4-0.2-0.7-0.4-1.1-0.6c1,3.2,2,6.3,3,9.5c0.1-0.3,0.2-0.6,0.2-0.9c-1,1.1-2,1.7-3.3,2.5
	c-3.5,2.1-7.6,3.4-11.6,4.1c-6.4,1.2-13.1,1.3-19.5,0.3c-4.3-0.7-8.6-1.9-12.5-4.1c-1.6-0.9-3.1-1.8-4.3-3.2c-0.8-0.9-2,0.4-1.3,1.3
	c1.5,1.8,3.8,3.1,5.8,4.1c6,3,12.8,4.2,19.4,4.3c7.2,0.2,14.6-0.7,21.2-3.5c1.8-0.8,3.5-1.7,5.1-2.8c0.7-0.5,1.5-1.1,2.1-1.7
	c0.4-0.4,0.3-0.8,0.2-1.3c-0.3-1-0.6-2.1-1-3.1c-0.6-2-1.3-4-1.9-6c-0.2-0.5-0.6-0.7-1.1-0.6c-14.4,2.4-29.3,2.5-43.7,0.5
	c-1-0.1-2-0.3-2.9-0.5c-0.5-0.1-1,0.1-1.1,0.6c-0.8,3-1.6,6.1-2.3,9.1C128.9,226.2,130.7,226.6,130.9,225.5L130.9,225.5z"/>
<path class="st0" d="M168.1,208.4c0,0-7.2,5.8-15,6.2c-7.7,0.4-11.5-4.7-11.5-4.7l0.8-3.1c0,0,8.7,4.3,24.7-0.3L168.1,208.4
	L168.1,208.4z"/>
<path class="st0" d="M192.5,154.9l0.1,0.1c0.1,0.3,0,0,0.1,0.2c0.2,0.5,0.4,0.9,0.5,1.4c0.6,1.6,1.1,3.3,1.5,5
	c1.2,4.9,1.8,10.1,0.9,15.1c-0.6,3.3-1.8,6.3-3.7,9.1c-0.7,1,0.9,1.9,1.6,0.9c6-8.8,5-20.5,1.6-30.1c-0.3-0.9-0.6-1.8-1-2.6
	C193.6,153,192,153.9,192.5,154.9z"/>
<path class="st0" d="M110.7,154c-1.1,2.4-1.8,4.9-2.5,7.4c-1.3,5.2-1.7,10.7-0.8,15.9c0.6,3.3,1.9,6.6,3.8,9.4
	c0.6,0.9,2.2,0.1,1.6-0.9c-5.7-8.4-4.7-19.5-1.5-28.6c0.2-0.6,0.4-1.2,0.7-1.8c0.2-0.4,0-0.1,0.2-0.5
	C112.7,153.9,111.2,153,110.7,154z"/>
<path class="st0" d="M162.4,121.7c0,0-8.4,35.2-45.2,38.6v1.2c0,0,34.8-0.3,48.4-37.4L162.4,121.7L162.4,121.7z"/>
<path class="st0" d="M157.4,186.2c-2.6,1.7-5.8,1.9-8.6,0.6c-2.8-1.3-6-2.1-6.7,0.8c-1.3,5.3,4.8,8.9,11.1,8.9
	c7.9,0,14-7.7,10.8-11.1C162.3,183.7,159.6,184.8,157.4,186.2L157.4,186.2z"/>
<path class="st0" d="M153.3,199.7c0,0.4,0.7,0.7,1.5,0.7c0.8,0,1.5-0.3,1.5-0.7c0-0.4-0.7-0.7-1.5-0.7
	C154,199,153.3,199.3,153.3,199.7z"/>
<path class="st5" d="M132.7,190.5c-3.5,0-6.3-2.8-6.3-6.3c0-3.5,2.8-6.3,6.3-6.3c3.5,0,6.3,2.8,6.3,6.3
	C139,187.7,136.2,190.5,132.7,190.5z"/>
<path class="st5" d="M173.3,190.5c-3.5,0-6.3-2.8-6.3-6.3c0-3.5,2.8-6.3,6.3-6.3s6.3,2.8,6.3,6.3
	C179.6,187.7,176.7,190.5,173.3,190.5z"/>
<path class="st0" d="M77.2,300.5c4.9-4.9,10.8-9.4,17.2-12.3c2.4-1.1,5.1-2,7.8-2.1c1.1-0.1,1.2-1.9,0-1.8c-5,0.3-9.8,2.6-14,5.3
	c-3.7,2.3-7.1,5-10.3,7.9c-0.6,0.6-1.3,1.2-1.9,1.8C75.1,300,76.4,301.3,77.2,300.5L77.2,300.5z"/>
<path class="st0" d="M240.5,299.2c-1.7-1.7-3.6-3.4-5.6-4.9c-3.9-3.1-8-6-12.6-7.9c-2.6-1.1-5.2-1.9-8-2.1c-1.2-0.1-1.1,1.7,0,1.8
	c4.8,0.3,9.4,2.7,13.4,5.2c3.5,2.2,6.7,4.7,9.7,7.5c0.6,0.6,1.2,1.1,1.8,1.7C240,301.3,241.3,300,240.5,299.2L240.5,299.2z"/>
<path class="st0" d="M30.4,257.6c0,1.2-1,2.2-2.2,2.2c-1.2,0-2.2-1-2.2-2.2c0-1.2,1-2.2,2.2-2.2C29.4,255.5,30.4,256.4,30.4,257.6z"
	/>
<path class="st0" d="M42.1,257.6c0,1.2-1,2.2-2.2,2.2c-1.2,0-2.2-1-2.2-2.2c0-1.2,1-2.2,2.2-2.2C41.1,255.5,42.1,256.4,42.1,257.6z"
	/>
<path class="st0" d="M53.7,257.6c0,1.2-1,2.2-2.2,2.2c-1.2,0-2.2-1-2.2-2.2c0-1.2,1-2.2,2.2-2.2C52.8,255.5,53.7,256.4,53.7,257.6z"
	/>
<path class="st0" d="M30.4,271.5c0,1.2-1,2.2-2.2,2.2c-1.2,0-2.2-1-2.2-2.2c0-1.2,1-2.2,2.2-2.2C29.4,269.3,30.4,270.3,30.4,271.5z"
	/>
<path class="st0" d="M42.1,271.5c0,1.2-1,2.2-2.2,2.2c-1.2,0-2.2-1-2.2-2.2c0-1.2,1-2.2,2.2-2.2C41.1,269.3,42.1,270.3,42.1,271.5z"
	/>
<path class="st0" d="M53.7,271.5c0,1.2-1,2.2-2.2,2.2c-1.2,0-2.2-1-2.2-2.2c0-1.2,1-2.2,2.2-2.2C52.8,269.3,53.7,270.3,53.7,271.5z"
	/>
<path class="st0" d="M23.1,264c0,1.2-1,2.2-2.2,2.2c-1.2,0-2.2-1-2.2-2.2c0-1.2,1-2.2,2.2-2.2C22.1,261.8,23.1,262.8,23.1,264z"/>
<path class="st0" d="M34.8,264c0,1.2-1,2.2-2.2,2.2c-1.2,0-2.2-1-2.2-2.2c0-1.2,1-2.2,2.2-2.2C33.8,261.8,34.8,262.8,34.8,264z"/>
<path class="st0" d="M46.5,264c0,1.2-1,2.2-2.2,2.2c-1.2,0-2.2-1-2.2-2.2c0-1.2,1-2.2,2.2-2.2C45.5,261.8,46.5,262.8,46.5,264z"/>
<path class="st0" d="M80.7,99.6c0,1.2-1,2.2-2.2,2.2c-1.2,0-2.2-1-2.2-2.2c0-1.2,1-2.2,2.2-2.2C79.7,97.4,80.7,98.4,80.7,99.6z"/>
<path class="st0" d="M92.3,99.6c0,1.2-1,2.2-2.2,2.2c-1.2,0-2.2-1-2.2-2.2c0-1.2,1-2.2,2.2-2.2C91.4,97.4,92.3,98.4,92.3,99.6z"/>
<path class="st0" d="M104,99.6c0,1.2-1,2.2-2.2,2.2c-1.2,0-2.2-1-2.2-2.2c0-1.2,1-2.2,2.2-2.2C103,97.4,104,98.4,104,99.6z"/>
<path class="st0" d="M80.7,113.5c0,1.2-1,2.2-2.2,2.2c-1.2,0-2.2-1-2.2-2.2c0-1.2,1-2.2,2.2-2.2C79.7,111.3,80.7,112.3,80.7,113.5z"
	/>
<path class="st0" d="M92.3,113.5c0,1.2-1,2.2-2.2,2.2c-1.2,0-2.2-1-2.2-2.2c0-1.2,1-2.2,2.2-2.2C91.4,111.3,92.3,112.3,92.3,113.5z"
	/>
<path class="st0" d="M104,113.5c0,1.2-1,2.2-2.2,2.2c-1.2,0-2.2-1-2.2-2.2c0-1.2,1-2.2,2.2-2.2C103,111.3,104,112.3,104,113.5z"/>
<path class="st0" d="M73.4,106c0,1.2-1,2.2-2.2,2.2c-1.2,0-2.2-1-2.2-2.2c0-1.2,1-2.2,2.2-2.2C72.4,103.8,73.4,104.8,73.4,106z"/>
<path class="st0" d="M85.1,106c0,1.2-1,2.2-2.2,2.2c-1.2,0-2.2-1-2.2-2.2c0-1.2,1-2.2,2.2-2.2C84.1,103.8,85.1,104.8,85.1,106z"/>
<path class="st0" d="M96.8,106c0,1.2-1,2.2-2.2,2.2c-1.2,0-2.2-1-2.2-2.2c0-1.2,1-2.2,2.2-2.2C95.8,103.8,96.8,104.8,96.8,106z"/>
<path class="st4" d="M231.2,206c0,1.2-1,2.2-2.2,2.2c-1.2,0-2.2-1-2.2-2.2c0-1.2,1-2.2,2.2-2.2C230.3,203.8,231.2,204.8,231.2,206z"
	/>
<path class="st4" d="M242.9,206c0,1.2-1,2.2-2.2,2.2c-1.2,0-2.2-1-2.2-2.2c0-1.2,1-2.2,2.2-2.2C241.9,203.8,242.9,204.8,242.9,206z"
	/>
<path class="st4" d="M254.6,206c0,1.2-1,2.2-2.2,2.2c-1.2,0-2.2-1-2.2-2.2c0-1.2,1-2.2,2.2-2.2C253.6,203.8,254.6,204.8,254.6,206z"
	/>
<path class="st4" d="M231.2,219.8c0,1.2-1,2.2-2.2,2.2c-1.2,0-2.2-1-2.2-2.2c0-1.2,1-2.2,2.2-2.2
	C230.3,217.6,231.2,218.6,231.2,219.8z"/>
<path class="st4" d="M242.9,219.8c0,1.2-1,2.2-2.2,2.2c-1.2,0-2.2-1-2.2-2.2c0-1.2,1-2.2,2.2-2.2
	C241.9,217.6,242.9,218.6,242.9,219.8z"/>
<path class="st4" d="M254.6,219.8c0,1.2-1,2.2-2.2,2.2c-1.2,0-2.2-1-2.2-2.2c0-1.2,1-2.2,2.2-2.2
	C253.6,217.6,254.6,218.6,254.6,219.8z"/>
<path class="st4" d="M224,212.4c0,1.2-1,2.2-2.2,2.2c-1.2,0-2.2-1-2.2-2.2c0-1.2,1-2.2,2.2-2.2C223,210.2,224,211.1,224,212.4z"/>
<path class="st4" d="M235.6,212.4c0,1.2-1,2.2-2.2,2.2c-1.2,0-2.2-1-2.2-2.2c0-1.2,1-2.2,2.2-2.2
	C234.7,210.2,235.6,211.1,235.6,212.4z"/>
<path class="st4" d="M247.3,212.4c0,1.2-1,2.2-2.2,2.2c-1.2,0-2.2-1-2.2-2.2c0-1.2,1-2.2,2.2-2.2
	C246.3,210.2,247.3,211.1,247.3,212.4z"/>
<path d="M152.5,282.9l-5,0c-0.9,0-1.6,0.7-1.6,1.6l0,5.5c0,0.2,0.2,0.4,0.4,0.4h0.8c0.2,0,0.4-0.2,0.4-0.4v-2.8h5
	c0.2,0,0.4-0.2,0.4-0.4v-3.5C152.9,283.1,152.7,282.9,152.5,282.9L152.5,282.9z M151.3,285.8c0,0.2-0.2,0.4-0.4,0.4l-3.4,0v-1.8
	c0-0.2,0.2-0.4,0.4-0.4h3c0.2,0,0.4,0.2,0.4,0.4V285.8L151.3,285.8z"/>
<path d="M138.4,284.4c0-0.2,0.2-0.4,0.4-0.4h4.6c0.2,0,0.4-0.2,0.4-0.4v-0.3c0-0.2-0.2-0.4-0.4-0.4l-5,0c-0.9,0-1.6,0.7-1.6,1.6
	l0,5.5c0,0.2,0.2,0.4,0.4,0.4h6.2c0.2,0,0.4-0.2,0.4-0.4v-0.3c0-0.2-0.2-0.4-0.4-0.4h-4.6c-0.2,0-0.4-0.2-0.4-0.4v-1.8h3.9
	c0.2,0,0.4-0.2,0.4-0.4l0-0.3c0-0.2-0.2-0.4-0.4-0.4l-3.9,0L138.4,284.4L138.4,284.4z"/>
<path d="M156.4,289c0,0.2,0.2,0.4,0.4,0.4h4.6c0.2,0,0.4,0.2,0.4,0.4v0.3c0,0.2-0.2,0.4-0.4,0.4h-6.2c-0.2,0-0.4-0.2-0.4-0.4v-5.5
	c0-0.9,0.7-1.6,1.6-1.6l5,0c0.2,0,0.4,0.2,0.4,0.4v0.3c0,0.2-0.2,0.4-0.4,0.4h-4.6c-0.2,0-0.4,0.2-0.4,0.4V289L156.4,289z"/>
<path d="M132.8,284.4c0-0.2-0.2-0.4-0.4-0.4l-3,0c-0.2,0-0.4,0.2-0.4,0.4v5.7c0,0.2-0.2,0.4-0.4,0.4h-0.8c-0.2,0-0.4-0.2-0.4-0.4
	v-5.5c0-0.9,0.7-1.6,1.6-1.6l5,0c0.2,0,0.4,0.2,0.4,0.4l0,6.8c0,0.2-0.2,0.4-0.4,0.4h-0.8c-0.2,0-0.4-0.2-0.4-0.4V284.4L132.8,284.4
	z"/>
<path d="M170.7,284.5c0-0.9-0.7-1.6-1.6-1.6l-5,0c-0.2,0-0.4,0.2-0.4,0.4v6.8c0,0.2,0.2,0.4,0.4,0.4l6.2,0c0.2,0,0.4-0.2,0.4-0.4
	L170.7,284.5L170.7,284.5z M169.1,289c0,0.2-0.2,0.4-0.4,0.4h-3c-0.2,0-0.4-0.2-0.4-0.4v-4.6c0-0.2,0.2-0.4,0.4-0.4l3,0
	c0.2,0,0.4,0.2,0.4,0.4V289z"/>
<path d="M189,284.5c0-0.9-0.7-1.6-1.6-1.6l-5,0c-0.2,0-0.4,0.2-0.4,0.4v6.8c0,0.2,0.2,0.4,0.4,0.4h0.8c0.2,0,0.4-0.2,0.4-0.4v-2.8
	h3.8v2.8c0,0.2,0.2,0.4,0.4,0.4h0.8c0.2,0,0.4-0.2,0.4-0.4L189,284.5L189,284.5z M187.4,286.1h-3.8v-1.8c0-0.2,0.2-0.4,0.4-0.4l3,0
	c0.2,0,0.4,0.2,0.4,0.4L187.4,286.1L187.4,286.1z"/>
<path d="M178.6,282.9c0.7,0,1.2,0.6,1.2,1.2l0,5.9c0,0.2-0.2,0.4-0.4,0.4h-0.8c-0.2,0-0.4-0.2-0.4-0.4v-2.8h-3.8v2.8
	c0,0.2-0.2,0.4-0.4,0.4h-0.8c-0.2,0-0.4-0.2-0.4-0.4v-6.8c0-0.2,0.2-0.4,0.4-0.4h0.8c0.2,0,0.4,0.2,0.4,0.4v2.8h3.8v-2.8
	C178.3,283.1,178.4,282.9,178.6,282.9L178.6,282.9z"/>
</svg>
